#!OML:ASF F:\VICON\USERDATA\INSTALL\rory3\rory3.ASF
:FULLY-SPECIFIED
:DEGREES
18
root 1.146422485618314 18.139687477436535 -11.82698993007425 -2.0087219603280895 -3.8441847958349626 -2.03514014519129
lfemur -16.747294217553964 -2.2313908759017136 -19.89559987837405
ltibia 18.544307229691015
lfoot 0.46502976468469104 -2.7023474983473657
ltoes -1.4908629118602024
rfemur 2.6425596775153473 4.99552807786817 25.510700247991963
rtibia 52.25539098000603
rfoot 16.642173830803138 1.0449862285590408
rtoes 8.031063113784592
lowerback 8.664065242968688 2.023601954286588 2.7839264756669766
upperback -0.3223626582935387 3.025792657222251 0.8691240530133286
thorax -5.099006589299064 1.4315825871116004 -1.046792005816155
lowerneck -17.027696435408743 -3.2087130570696423 -1.825162594356737
upperneck 22.696582037881395 -4.075054817538395 0.3347951297906404
head 10.09108424897547 -1.9984218779066987 -0.1316820654365514
lclavicle -2.7971981472530934e-15 -4.160076361964552e-16
lhumerus -38.60758637660644 9.87028270005888 79.61161996028162
lradius 18.10891544921226
lwrist -1.0797216922697483
lhand -25.56020781660201 21.026007300238348
lfingers 7.1250199999999975
lthumb 0.9705011831497311 51.003507277277656
rclavicle -2.7971981472530934e-15 -4.160076361964552e-16
rhumerus -28.658498658268833 -17.94830013386071 -79.42479886971151
rradius 25.550397674835715
rwrist 5.960560648578679
rhand -17.69069882932043 26.473582678762657
rfingers 7.1250199999999975
rthumb 8.568851169416797 -3.332527334279308
19
root 1.1862915352013048 18.208983603871697 -10.928290329456734 -2.3716390933895073 -3.2936765143904014 -0.7265103746606247
lfemur -13.603796339901422 -2.163651134592927 -22.13169665037221
ltibia 19.68770659953863
lfoot -2.2723340343530487 -2.143068276884308
ltoes -2.444281557533793
rfemur -4.005625823428922 4.359920359916714 23.804502772579976
rtibia 62.672985052970134
rfoot 10.100380696819999 -3.1455659274075902
rtoes 7.032844650128082
lowerback 9.474974977420148 1.7742634486475533 1.2516599870784006
upperback -0.2857006195404731 2.541124530516878 0.6831069586989365
thorax -5.591654999974718 1.225224312658868 -0.34952088633077183
lowerneck -16.656401568920455 -3.0817964356549266 -1.768453306743762
upperneck 21.47319582121939 -3.9166975651370515 0.38926753991732943
head 9.584817651481414 -1.9209853818997709 -0.08241841870477801
lclavicle -2.7971981595341233e-15 -4.160076167795146e-16
lhumerus -37.26098850077514 6.826208445986102 81.1567111823787
lradius 20.273410812104196
lwrist 0.8556739580669737
lhand -25.69690712643235 23.78409936310993
lfingers 7.1250199999999975
lthumb 0.8385258730836139 53.762199341508456
rclavicle -2.7971981595341233e-15 -4.160076167795146e-16
rhumerus -29.77189561637022 -18.307199535621066 -79.20149962144953
rradius 24.718800217199526
rwrist 5.633311459596265
rhand -17.42470107707866 17.91411905489743
rfingers 7.1250199999999975
rthumb 8.825568921470689 -11.88138089779806
20
root 1.2046010987293858 18.200584073394708 -10.085090704175114 -2.808375643299249 -2.498138997868629 -0.003077119967337616
lfemur -10.779998246402103 -2.5566096339242064 -23.37699485267503
ltibia 20.343906237892725
lfoot -4.790531089675494 -1.4353592620409112
ltoes 1.4077629706562544
rfemur -10.637701335275318 3.3137041161899443 22.775704294849437
rtibia 68.88458151891473
rfoot 2.4226387550855364 -7.906917014931281
rtoes 5.108247612247318
lowerback 9.679112393183624 1.3749058421182956 0.30100716563755225
upperback 0.3626973800249907 1.8977970170471545 0.687555913120822
thorax -5.065017388879169 0.9368827237424173 0.2833704991153767
lowerneck -17.406891192673378 -3.0133782569817877 -1.6320950196884754
upperneck 21.119799802772153 -3.786679821027285 0.17235988877676056
head 9.590437502705866 -1.871817606736281 -0.17165496738430178
lclavicle -2.7971981874458775e-15 -4.1600762281451624e-16
lhumerus -34.93309217287691 6.00997998668088 81.47270938714388
lradius 21.773507598370877
lwrist 2.446976737306639
lhand -27.10360002429877 19.067012937754974
lfingers 7.1250199999999975
lthumb -0.5201580240570483 49.04611290800032
rclavicle -2.7971981874458775e-15 -4.1600762281451624e-16
rhumerus -29.306296888426978 -20.560795779162817 -78.5035019712621
rradius 22.835805973898708
rwrist 9.412722093129993
rhand -17.225802757827196 20.47520817074313
rfingers 7.1250199999999975
rthumb 9.017497240852515 -9.312061848616747
21
root 1.0622924537902156 18.079261461440044 -0.7614400425959023 -3.731122777829322 -2.4855209271025718 1.1256211390929733
lfemur -7.450908751786553 -2.6260075123839597 -25.34577561201298
ltibia 26.445268546257484
lfoot -10.362817376742868 -0.010508828895390288
ltoes -1.0414149073838819
rfemur -17.698100980859042 2.194781402427939 21.799355920365677
rtibia 62.706866437718304
rfoot -2.490973324564596 -6.170187286362222
rtoes 6.63792765743316
lowerback 10.07200242635863 1.0115611830208044 -1.0326287152698785
upperback 0.44928048180296004 1.238232237991745 0.3600257510281857
thorax -5.092800228456773 0.6462909795317917 0.8796537414601939
lowerneck -16.687794674661877 -2.795422773288054 -1.65971506359528
upperneck 21.399916357758066 -3.527098970990162 0.38451375106103947
head 9.593890526900536 -1.7448416125047925 -0.021737342434776763
lclavicle -3.148677896478219e-15 -6.504485015582388e-16
lhumerus -33.17594626811159 3.180265166204326 82.03961541369061
lradius 22.650045286596544
lwrist 3.5196745664379563
lhand -25.705451044465974 25.031683892574474
lfingers 7.1250199999999975
lthumb 0.8303035599448026 55.00164460638552
rclavicle -3.148677896478219e-15 -6.504485015582388e-16
rhumerus -27.84386588142045 -19.461902703783604 -78.48842438413207
rradius 23.58793838348739
rwrist 8.14883403482417
rhand -16.746680370500076 22.031613678167968
rfingers 7.1250199999999975
rthumb 9.479733347268562 -8.231824030317481
22
root 0.9996574819748891 18.038042961214995 0.6017061549929199 -3.77780516613812 -2.399849847663136 1.4166662357019502
lfemur -4.727428373517414 -2.4575019107115827 -26.36413339938919
ltibia 26.047786971708813
lfoot -12.69811123126033 1.1749063170575222
ltoes -0.2608286345014652
rfemur -22.569223071614083 1.6914083095277759 21.479929592264142
rtibia 59.588478583223214
rfoot -6.728048385397567 -6.324072480418726
rtoes 4.061042540767321
lowerback 10.23909864780975 0.6160050887850481 -1.6517674918936194
upperback 0.5929793373713119 0.6350397336693879 0.4900248632764459
thorax -5.062761297602405 0.3667173119549926 1.344979212976264
lowerneck -16.521780118772632 -2.76505416561717 -1.937165639557842
upperneck 21.510271073688745 -3.4655307576517695 0.4291921436118715
head 9.610215766908553 -1.725518461056481 0.04746931598309381
lclavicle -3.177113729895668e-15 -6.691248781059274e-16
lhumerus -30.838087073944266 1.1054059045439115 82.39869560276993
lradius 24.103046016781185
lwrist 3.7934157722586344
lhand -26.203776274074567 24.68003872503147
lfingers 7.1250199999999975
lthumb 0.3490411818068154 54.654889803481254
rclavicle -3.177113729895668e-15 -6.691248781059274e-16
rhumerus -28.32660686636637 -19.72675732974253 -78.57043815926518
rradius 23.63752965494665
rwrist 7.360182266263857
rhand -16.851133559827453 21.92644192528517
rfingers 7.1250199999999975
rthumb 9.378880174086108 -7.926156129636119
23
root 0.9295946781548361 17.985201075309014 0.5591811497867774 -3.5244405537024712 -1.7902492747670673 2.0029653908262106
lfemur -2.677671968879487 -2.10203187189203 -27.1240140601833
ltibia 26.374941671600695
lfoot -14.65186795340394 1.8860460043434386
ltoes 0.7812964583193538
rfemur -25.4467923269075 1.6846883309135214 20.646462886589752
rtibia 53.15624438766871
rfoot -8.037320958553416 -8.380579753192116
rtoes 2.9705857181891497
lowerback 10.341198341475058 0.34429345571969927 -2.4282933157022377
upperback 0.6818241046268897 0.1655637959463615 0.5620574804380367
thorax -5.045455167921942 0.1572513793581935 1.7934339100196572
lowerneck -16.51281310343414 -2.8051010799984524 -2.2046048593644345
upperneck 21.42270250675121 -3.5082828722717085 0.5076511717743957
head 9.58078120424374 -1.744184483103575 0.10245741422739346
lclavicle -3.150442148847588e-15 -6.513958209735174e-16
lhumerus -28.72291775760415 -1.0600849776016898 82.64386351909042
lradius 25.169478952665365
lwrist 4.2956029375722435
lhand -26.369043165042797 25.436827488061116
lfingers 7.1250199999999975
lthumb 0.18939747861516432 55.41338916446474
rclavicle -3.150442148847588e-15 -6.513958209735174e-16
rhumerus -28.696612778770135 -19.2018371555589 -78.84300658688487
rradius 23.546493669499917
rwrist 6.153171260650595
rhand -16.94279806291464 22.160771470839137
rfingers 7.1250199999999975
rthumb 9.290412932938949 -7.500283298071069
24
root 0.8552109821097154 17.9501619881132 1.5658549743190235 -2.868974916284995 -0.9763463058388626 2.793424221416482
lfemur 1.1425393600458147 -1.9118699301295952 -27.59205874720797
ltibia 23.796002278170494
lfoot -15.188351183287619 2.3098376135506813
ltoes 2.15491632971908
rfemur -26.619258388027035 2.823939996287282 19.129366445811392
rtibia 42.090860860077946
rfoot -8.052587764124098 -10.820891183669136
rtoes 1.551510432992445
lowerback 10.220406808136431 0.06108989965574185 -3.2681138674832146
upperback 0.6732650786694837 -0.3067690873838622 0.6465760023317699
thorax -4.952020667046522 -0.05657010014897135 2.4256092593335663
lowerneck -16.7475112397577 -2.8026469899776107 -2.1119024245418707
upperneck 21.22806424965748 -3.506208198875879 0.5457581326196578
head 9.557636598981052 -1.7389837317268708 0.10512096814539693
lclavicle -2.5928080758141395e-15 -2.8027262243228875e-16
lhumerus -26.351672823701396 -2.991489857440201 82.8138946984974
lradius 26.57118798992528
lwrist 5.451506568206252
lhand -26.522181090351292 26.730553775513172
lfingers 7.1250199999999975
lthumb 0.04146347997469657 56.71358304169847
rclavicle -2.5928080758141395e-15 -2.8027262243228875e-16
rhumerus -29.18838107656237 -19.11275552471983 -78.77433389424003
rradius 23.51679948479331
rwrist 5.851203277568152
rhand -16.96377118402525 23.006253763582823
rfingers 7.1250199999999975
rthumb 9.270147925620744 -6.653104897180102
25
root 0.8144586818430204 17.916319720928435 3.7516865612709704 -2.0916588493244266 -0.021153612661752863 3.591511538890541
lfemur 5.626535625389884 -1.7330025024157523 -27.826333753304347
ltibia 20.429097992299024
lfoot -15.677224285505858 2.506914879668744
ltoes 1.161144506667911
rfemur -27.167229774921253 4.496214932899436 17.102545421803114
rtibia 31.00275827957698
rfoot -6.902470042102561 -13.67648683129175
rtoes 0.24189128568164753
lowerback 9.861238968242406 -0.25714005305356236 -4.173339094338926
upperback 0.5676920575274422 -0.840485733377266 0.6708325597360659
thorax -4.8202020365816205 -0.30191901047161573 3.061087677340896
lowerneck -16.846278922873733 -2.8019149391151723 -2.092101749230456
upperneck 21.120865535985867 -3.4971591762375303 0.6323157729413786
head 9.53552075643627 -1.7344477384091423 0.14228849876926142
lclavicle -2.1549274575536005e-15 1.1193111181840468e-17
lhumerus -24.114045877062097 -4.190359515827973 82.74488961658083
lradius 28.042133810378793
lwrist 6.539078258849189
lhand -27.17674742482355 27.609684713539234
lfingers 7.1250199999999975
lthumb -0.5907503750798704 57.5910705273842
rclavicle -2.1549274575536005e-15 1.1193111181840468e-17
rhumerus -29.68866526089377 -19.32391443013932 -78.54805200848895
rradius 23.059474380604307
rwrist 6.493603118016223
rhand -16.881493530517524 23.01234927828092
rfingers 7.1250199999999975
rthumb 9.349541245613786 -6.675579071097951
